<svg width="212" height="32" viewBox="0 0 212 32" fill="none" xmlns="http://www.w3.org/2000/svg" class="max-w-[170px] ">
                            <g clip-path="url(#clip0_438_5365)">
                            <path d="M42.9558 23.8578H38.7783V9.18774H42.9558V23.8578Z" fill="#008081"></path>
                            <path d="M58.8387 20.2576V23.8578H46.2742V20.775L53.3082 12.7879H46.4997V9.18774H58.6562V12.2382L51.6544 20.2576H58.8387Z" fill="#008081"></path>
                            <path d="M61.7597 4.97326C61.7533 4.48754 61.8911 4.01091 62.1556 3.60407C62.42 3.19723 62.7991 2.87859 63.2445 2.68875C63.69 2.4989 64.1817 2.44644 64.657 2.53804C65.1322 2.62965 65.5696 2.86117 65.9133 3.20312C66.2571 3.54507 66.4916 3.98198 66.5871 4.45819C66.6826 4.9344 66.6347 5.42836 66.4495 5.87715C66.2643 6.32594 65.9502 6.70926 65.5473 6.97827C65.1443 7.24728 64.6707 7.38982 64.1867 7.38772C63.5476 7.38495 62.9351 7.13036 62.4812 6.67876C62.0273 6.22717 61.7682 5.61471 61.7597 4.97326ZM66.1842 23.8578H62.1893V9.18779H66.1842V23.8578Z" fill="#008081"></path>
                            <path d="M69.4057 16.5067C69.3662 15.4836 69.5383 14.4633 69.9111 13.5103C70.2838 12.5572 70.8492 11.6919 71.5715 10.9689C72.2938 10.2459 73.1574 9.68093 74.108 9.30947C75.0586 8.938 76.0755 8.76814 77.0947 8.81057C78.1763 8.78121 79.2515 8.98654 80.2468 9.41254C81.242 9.83854 82.1339 10.4752 82.8616 11.2789L79.9084 13.812C79.5745 13.3976 79.1497 13.0663 78.6673 12.8438C78.1848 12.6213 77.6577 12.5136 77.127 12.5293C76.6191 12.5223 76.1154 12.6229 75.649 12.8248C75.1825 13.0266 74.7637 13.325 74.4201 13.7004C74.0765 14.0759 73.8157 14.5199 73.6548 15.0035C73.4939 15.4871 73.4365 15.9993 73.4865 16.5067C73.4344 17.0172 73.4913 17.5329 73.6535 18.0196C73.8156 18.5062 74.0792 18.9526 74.4268 19.329C74.7743 19.7053 75.1977 20.003 75.6689 20.2022C76.1401 20.4014 76.6481 20.4975 77.1592 20.4841C77.726 20.5044 78.2886 20.3795 78.7941 20.1211C79.2995 19.8628 79.731 19.4795 80.048 19.0074L83.0334 21.562C82.3042 22.4218 81.3922 23.1064 80.3643 23.5653C79.3365 24.0242 78.2192 24.2457 77.0947 24.2136C76.0754 24.2528 75.059 24.0805 74.1091 23.7072C73.1592 23.3339 72.2964 22.7678 71.5746 22.0443C70.8528 21.3209 70.2875 20.4556 69.9143 19.5027C69.5411 18.5498 69.368 17.5298 69.4057 16.5067Z" fill="#008081"></path>
                            <path d="M100.023 14.4479V23.8578H96.0599V15.321C96.092 14.9415 96.0402 14.5597 95.9083 14.2027C95.7764 13.8457 95.5676 13.5223 95.2968 13.2556C95.0259 12.9889 94.6998 12.7856 94.3417 12.66C93.9835 12.5344 93.6022 12.4898 93.2248 12.5292C92.8212 12.4939 92.4147 12.54 92.0291 12.6647C91.6435 12.7893 91.2866 12.9901 90.9795 13.2553C90.6723 13.5204 90.421 13.8445 90.2405 14.2085C90.0599 14.5725 89.9537 14.969 89.928 15.3748V23.8578H85.9116V2.07373H89.9065V10.6968C90.4685 10.0767 91.1583 9.58676 91.9279 9.26103C92.6975 8.9353 93.5285 8.78157 94.3632 8.81052C95.1136 8.76893 95.8643 8.88593 96.5669 9.15393C97.2694 9.42194 97.908 9.83499 98.4415 10.3664C98.9749 10.8977 99.3913 11.5356 99.6637 12.2387C99.936 12.9417 100.058 13.6944 100.023 14.4479Z" fill="#008081"></path>
                            <path d="M116.754 15.116V23.8577H113.167L112.995 21.9175C112.407 22.6496 111.66 23.2372 110.812 23.6351C109.963 24.033 109.035 24.2308 108.098 24.2134C105.499 24.2134 103.008 22.6505 103.008 19.6216C103.008 16.3125 106.047 15.0083 108.914 15.0083C110.216 15.0287 111.509 15.2244 112.759 15.5903V15.2669C112.759 13.2621 111.685 12.3351 109.537 12.3351C108.027 12.3226 106.553 12.8031 105.338 13.704L103.91 10.8476C105.801 9.47715 108.086 8.76204 110.418 8.81041C114.584 8.81041 116.754 10.8692 116.754 15.116ZM112.759 18.0802C111.745 17.7744 110.692 17.6183 109.634 17.6167C108.162 17.6167 107.003 18.1341 107.003 19.3845C107.003 20.4624 107.873 21.0444 109.15 21.0444C110.944 21.0444 112.759 19.9019 112.759 18.0802Z" fill="#008081"></path>
                            <path d="M134.301 14.4478V23.8577H130.338V15.3209C130.359 14.946 130.3 14.5711 130.166 14.2209C130.031 13.8706 129.824 13.553 129.558 13.2891C129.292 13.0252 128.973 12.821 128.623 12.69C128.272 12.559 127.898 12.5041 127.525 12.5291C127.119 12.4908 126.71 12.5345 126.321 12.6577C125.932 12.7808 125.572 12.981 125.262 13.2463C124.951 13.5115 124.697 13.8366 124.514 14.2022C124.331 14.5678 124.223 14.9665 124.196 15.3748V23.8577H120.201V9.18769H123.788L123.97 10.9878C124.519 10.2885 125.223 9.72881 126.028 9.35423C126.832 8.97966 127.713 8.80074 128.599 8.83198C129.351 8.78436 130.104 8.89614 130.811 9.16005C131.517 9.42395 132.16 9.83408 132.697 10.3638C133.235 10.8934 133.656 11.5308 133.932 12.2344C134.209 12.9381 134.334 13.6922 134.301 14.4478Z" fill="#008081"></path>
                            <path d="M151.784 11.7101L149.443 11.9149C149.804 12.6872 149.991 13.5301 149.991 14.3833C149.991 17.7247 147.446 19.9991 143.741 19.9991C143.215 19.9947 142.69 19.9442 142.173 19.8482C141.897 19.8478 141.632 19.9539 141.432 20.1446C141.232 20.3352 141.113 20.5957 141.099 20.8721C141.099 21.4758 141.539 21.7129 142.259 21.7129H144.256C149.293 21.7129 151.774 23.1357 151.774 26.4125C151.774 29.6893 149.4 31.5001 144.256 31.5001C139.112 31.5001 136.492 29.5276 136.492 26.682C136.488 26.0294 136.681 25.3909 137.045 24.8503C137.409 24.3097 137.928 23.8924 138.532 23.6531C138.208 23.3371 137.952 22.9581 137.778 22.5393C137.604 22.1205 137.518 21.6706 137.523 21.2171C137.498 20.642 137.655 20.0736 137.971 19.5934C138.287 19.1132 138.747 18.7459 139.284 18.5439C138.702 18.0228 138.24 17.3806 137.93 16.6621C137.621 15.9435 137.471 15.1659 137.491 14.3833C137.491 11.0418 139.95 8.81061 143.719 8.81061C144.554 8.80741 145.383 8.93469 146.179 9.18787H151.763L151.784 11.7101ZM144.267 24.8172H141.958C141.6 24.916 141.283 25.1273 141.053 25.4202C140.823 25.713 140.692 26.0721 140.68 26.4448C140.68 27.6089 141.894 28.3635 144.267 28.3635C146.64 28.3635 147.714 27.7275 147.714 26.4125C147.714 25.0975 146.92 24.8172 144.256 24.8172H144.267ZM146.35 14.3833C146.35 12.9389 145.459 12.0658 143.752 12.0658C142.044 12.0658 141.142 12.9389 141.142 14.3833C141.142 15.8276 142.044 16.7438 143.752 16.7438C145.459 16.7438 146.34 15.8708 146.34 14.3833H146.35Z" fill="#008081"></path>
                            <path d="M161.02 20.7751C162.318 20.7931 163.572 20.3064 164.521 19.4169L167.13 21.9176C165.503 23.4307 163.356 24.2534 161.138 24.2135C156.585 24.2135 153.202 21.1308 153.202 16.4635C153.154 15.4431 153.32 14.4239 153.687 13.4712C154.055 12.5185 154.616 11.6533 155.336 10.931C156.056 10.2086 156.918 9.64496 157.867 9.27612C158.816 8.90729 159.831 8.74137 160.848 8.78898C165.713 8.78898 168 12.2167 168 15.7306C167.982 16.453 167.914 17.1734 167.796 17.8863H157.315C157.467 18.7427 157.93 19.5121 158.614 20.0457C159.298 20.5794 160.155 20.8392 161.02 20.7751ZM157.315 15.1485H164.113C164.094 14.7397 163.993 14.3389 163.815 13.9708C163.637 13.6026 163.386 13.2748 163.077 13.0074C162.769 12.74 162.409 12.5387 162.02 12.4157C161.631 12.2927 161.221 12.2506 160.816 12.2921C159.985 12.2573 159.171 12.5285 158.526 13.0546C157.881 13.5808 157.45 14.3255 157.315 15.1485Z" fill="#008081"></path>
                            <path d="M18.5784 0.5H10.8463C4.85607 0.5 0 5.37412 0 11.3866V19.1474C0 25.16 4.85607 30.0341 10.8463 30.0341H18.5784C24.5686 30.0341 29.4247 25.16 29.4247 19.1474V11.3866C29.4247 5.37412 24.5686 0.5 18.5784 0.5Z" fill="#008081"></path>
                            <path d="M8.93481 11.9365V21.6374C8.93481 21.9948 9.07624 22.3375 9.32798 22.5902C9.57973 22.8428 9.92116 22.9848 10.2772 22.9848C10.6332 22.9848 10.9746 22.8428 11.2264 22.5902C11.4781 22.3375 11.6195 21.9948 11.6195 21.6374V11.9365C11.6195 11.5791 11.4781 11.2364 11.2264 10.9837C10.9746 10.7311 10.6332 10.5891 10.2772 10.5891C9.92116 10.5891 9.57973 10.7311 9.32798 10.9837C9.07624 11.2364 8.93481 11.5791 8.93481 11.9365Z" fill="white"></path>
                            <path d="M10.739 9.47878C11.6879 9.47878 12.4572 8.70664 12.4572 7.75416C12.4572 6.80168 11.6879 6.02954 10.739 6.02954C9.79003 6.02954 9.02075 6.80168 9.02075 7.75416C9.02075 8.70664 9.79003 9.47878 10.739 9.47878Z" fill="#DC3E4D"></path>
                            <path d="M18.1918 10.9769L11.19 18.9749L9.4396 20.9797C9.19476 21.2365 9.05811 21.5782 9.05811 21.9337C9.05811 22.2891 9.19476 22.6308 9.4396 22.8876C9.69234 23.1351 10.0315 23.2737 10.3846 23.2737C10.7378 23.2737 11.0769 23.1351 11.3297 22.8876L18.2563 14.9328L20.0497 12.8848C20.2945 12.628 20.4312 12.2863 20.4312 11.9309C20.4312 11.5754 20.2945 11.2337 20.0497 10.9769C19.7969 10.7294 19.4578 10.5908 19.1047 10.5908C18.7515 10.5908 18.4124 10.7294 18.1596 10.9769H18.1918Z" fill="white"></path>
                            <path d="M10.3846 23.2758H19.0617C19.4168 23.273 19.7566 23.1301 20.0078 22.878C20.2589 22.626 20.4012 22.2849 20.404 21.9284C20.3985 21.5728 20.2553 21.2333 20.0047 20.9818C19.7542 20.7304 19.416 20.5866 19.0617 20.5811H10.3846C10.0286 20.5811 9.68715 20.723 9.43541 20.9757C9.18366 21.2284 9.04224 21.5711 9.04224 21.9284C9.04224 22.2858 9.18366 22.6285 9.43541 22.8811C9.68715 23.1338 10.0286 23.2758 10.3846 23.2758Z" fill="white"></path>
                            <path d="M19.1369 10.5891H10.6209C10.2658 10.5919 9.92597 10.7348 9.67484 10.9869C9.4237 11.2389 9.28137 11.58 9.27856 11.9365C9.28676 12.2912 9.43081 12.6292 9.6808 12.8801C9.93079 13.131 10.2675 13.2756 10.6209 13.2838H19.1369C19.4929 13.2838 19.8344 13.1419 20.0861 12.8892C20.3379 12.6365 20.4793 12.2938 20.4793 11.9365C20.4793 11.5791 20.3379 11.2364 20.0861 10.9837C19.8344 10.7311 19.4929 10.5891 19.1369 10.5891Z" fill="white"></path>
                            </g>
                            <path d="M169.75 25V7.5H177.85C178.983 7.5 179.983 7.75 180.85 8.25C181.733 8.75 182.417 9.46667 182.9 10.4C183.383 11.3167 183.625 12.3833 183.625 13.6C183.625 14.8333 183.383 15.9167 182.9 16.85C182.417 17.7833 181.733 18.5 180.85 19C179.983 19.5 178.983 19.75 177.85 19.75H173.75V25H169.75ZM177.625 15.875C178.208 15.875 178.683 15.675 179.05 15.275C179.433 14.8583 179.625 14.3083 179.625 13.625C179.625 12.9417 179.433 12.4 179.05 12C178.683 11.5833 178.208 11.375 177.625 11.375H173.75V15.875H177.625ZM189.053 25.25C188.103 25.25 187.27 25.075 186.553 24.725C185.853 24.375 185.311 23.9083 184.928 23.325C184.561 22.725 184.378 22.0583 184.378 21.325C184.378 20.0583 184.828 19.0417 185.728 18.275C186.628 17.5083 187.928 17.125 189.628 17.125H192.428V16.9C192.428 16.35 192.245 15.9 191.878 15.55C191.528 15.1833 191.07 15 190.503 15C189.986 15 189.578 15.1167 189.278 15.35C188.978 15.5667 188.761 15.825 188.628 16.125H184.928C185.011 15.425 185.278 14.7583 185.728 14.125C186.195 13.4917 186.828 12.9833 187.628 12.6C188.445 12.2 189.403 12 190.503 12C191.653 12 192.653 12.2167 193.503 12.65C194.37 13.0833 195.036 13.675 195.503 14.425C195.97 15.1583 196.203 15.9833 196.203 16.9V25H192.928L192.678 23.9H192.553C192.27 24.25 191.811 24.5667 191.178 24.85C190.561 25.1167 189.853 25.25 189.053 25.25ZM189.878 22.325C190.678 22.325 191.303 22.1083 191.753 21.675C192.203 21.2417 192.428 20.6583 192.428 19.925V19.625H190.128C189.478 19.625 188.986 19.75 188.653 20C188.336 20.2333 188.178 20.5583 188.178 20.975C188.178 21.3917 188.32 21.725 188.603 21.975C188.903 22.2083 189.328 22.325 189.878 22.325ZM207.271 12.25H211.271L205.846 27.4C205.512 28.3167 205.071 28.975 204.521 29.375C203.987 29.7917 203.162 30 202.046 30H198.821V26.525H201.396C201.812 26.525 202.087 26.35 202.221 26L202.396 25.6L197.221 12.25H201.221L204.146 20.075H204.646L207.271 12.25Z" fill="#4E4B66"></path>
                            <defs>
                            <clipPath id="clip0_438_5365">
                            <rect width="168" height="31" fill="white" transform="translate(0 0.5)"></rect>
                            </clipPath>
                            </defs>
                        </svg>